<?xml version="1.0" encoding="UTF-8" standalone="no"?>
<!-- Created with Inkscape (http://www.inkscape.org/) -->

<svg
   xmlns:dc="http://purl.org/dc/elements/1.1/"
   xmlns:cc="http://creativecommons.org/ns#"
   xmlns:rdf="http://www.w3.org/1999/02/22-rdf-syntax-ns#"
   xmlns:svg="http://www.w3.org/2000/svg"
   xmlns="http://www.w3.org/2000/svg"
   xmlns:sodipodi="http://sodipodi.sourceforge.net/DTD/sodipodi-0.dtd"
   xmlns:inkscape="http://www.inkscape.org/namespaces/inkscape"
   width="1024"
   height="1400"
   id="svg5407"
   version="1.1"
   inkscape:version="0.48.2 r9819"
   sodipodi:docname="back.svg"
   inkscape:export-filename="C:\wamp\www\images\back.png"
   inkscape:export-xdpi="34.059505"
   inkscape:export-ydpi="34.059505">
  <defs
     id="defs5409">
    <inkscape:path-effect
       effect="spiro"
       id="path-effect4868"
       is_visible="true" />
    <inkscape:path-effect
       effect="spiro"
       id="path-effect4878"
       is_visible="true" />
    <inkscape:path-effect
       effect="spiro"
       id="path-effect4882"
       is_visible="true" />
    <inkscape:path-effect
       effect="spiro"
       id="path-effect4886"
       is_visible="true" />
    <inkscape:path-effect
       effect="spiro"
       id="path-effect4890"
       is_visible="true" />
    <inkscape:path-effect
       effect="spiro"
       id="path-effect4894"
       is_visible="true" />
  </defs>
  <sodipodi:namedview
     id="base"
     pagecolor="#ffffff"
     bordercolor="#666666"
     borderopacity="1.0"
     inkscape:pageopacity="0.0"
     inkscape:pageshadow="2"
     inkscape:zoom="0.25"
     inkscape:cx="454.41962"
     inkscape:cy="1005.6375"
     inkscape:current-layer="layer1"
     inkscape:document-units="px"
     showgrid="false"
     inkscape:window-width="1440"
     inkscape:window-height="838"
     inkscape:window-x="-8"
     inkscape:window-y="-8"
     inkscape:window-maximized="1" />
  <metadata
     id="metadata5412">
    <rdf:RDF>
      <cc:Work
         rdf:about="">
        <dc:format>image/svg+xml</dc:format>
        <dc:type
           rdf:resource="http://purl.org/dc/dcmitype/StillImage" />
        <dc:title></dc:title>
      </cc:Work>
    </rdf:RDF>
  </metadata>
  <g
     id="layer1"
     inkscape:label="Layer 1"
     inkscape:groupmode="layer"
     transform="translate(0,632)">
    <g
       transform="matrix(3.1664347,0,0,3.1664347,-693.26548,-1386.2592)"
       id="g4969"
       style="fill:none;display:inline"
       inkscape:export-filename="C:\Users\TyTy\Desktop\luke4bart\images\back.png"
       inkscape:export-xdpi="180"
       inkscape:export-ydpi="180">
      <path
         sodipodi:nodetypes="cssssssscssssssssscssssssscsssssssssssssssssssssssssssssssssscssssccc"
         inkscape:connector-curvature="0"
         inkscape:original-d="m 60.811183,275.14657 c 5.446216,-9.55559 39.268527,-9.19238 60.104077,-9.19238 13.914,0 24.30963,1.97495 35.35534,5.65685 4.52612,1.50871 7.97541,4.99906 13.43503,6.36396 33.75358,8.4384 40.11081,29.50421 61.51829,50.91169 2.11892,2.11892 3.88546,7.42099 6.36396,9.89949 7.39701,7.39701 14.32214,35.53535 20.5061,41.7193 5.59672,5.59673 5.31317,43.49694 11.3137,49.49748 0.86337,0.86337 -5.54289,46.29468 0.70711,50.91169 20.34251,16.146 9.13521,9.01513 4.63521,21.83535 -2.80902,8.00272 -0.98854,13.98854 -5.75,18.75 -0.59042,0.59042 -0.25,2.88007 -0.25,3.75 0,4.00938 -1.46643,20.85072 -0.75,23 1.12835,3.38506 1.55084,8.90042 4.75,10.5 1.28853,0.64426 2.97225,1.47225 3.75,2.25 0.85911,0.85911 2.69543,2.59771 4,3.25 1.28248,0.64124 2.87497,1.12497 3.75,2 1.36867,1.36867 2.17383,3.17383 3.5,4.5 0.52289,0.52289 0.0828,2.33278 0.75,3 2.05907,2.05907 4.6762,4.6762 6.75,6.75 0.31225,0.31225 0.40319,1.65319 0.75,2 3.02292,3.02292 -6.75783,2.37891 -8,3 -1.19562,0.59781 -1.50814,1.75814 -2.5,2.75 -0.46555,0.46555 -0.31978,2.18022 0.25,2.75 1.09932,1.09932 2.42096,1.67096 3.25,2.5 1.69074,1.69074 -0.25,-4.92101 -0.25,2.25 0,3.35265 -6.37164,8.69422 -7.9567,5.26054 -0.39088,-0.0968 -2.54678,-1.91966 -2.54678,0.81937 0,4.49542 3.84043,8.46095 7.42462,10.25304 1.85988,0.92995 4.32412,0.73427 6.36396,1.41422 2.35154,0.78384 8.53192,-1.36758 10.25305,0.35355 1.37243,1.37243 8.28666,2.12132 10.6066,2.12132 3.0766,0 2.30259,-4.65362 5.65686,-3.53553 3.95024,1.31675 6.62348,3.08795 8.83883,5.3033 1.51989,1.51989 -1.58171,4.15889 0.70711,5.3033 1.26158,0.63079 2.5475,1.67413 3.88908,2.12132 4.92715,1.64238 5.92066,-3.36149 9.19239,3.18198 1.63312,3.26625 9.838,7.19406 6.71752,13.43503 -8.83935,17.6787 -16.05981,-12.42812 -26.16295,7.77817 -0.47497,0.94994 0.24851,2.36984 0.7071,2.82843 1.35175,1.35174 4.58885,1.05331 5.65686,2.12132 1.95536,1.95536 6.83352,7.30861 3.53553,10.6066 -3.18401,3.18401 -12.64484,-1.49729 -15.9099,1.76777 -1.60824,1.60824 -0.0923,6.10266 -1.76777,7.77817 -0.55458,0.55459 -8.17521,1.72429 -9.19239,0.70711 -1.26579,-1.26579 -1.99361,-3.76138 -3.18198,-4.94975 -3.03106,-3.03106 -9.78351,0.11598 -13.08147,-3.18198 -3.94611,-3.94611 -6.64077,-21.70516 -10.6066,-23.68807 -0.99529,-0.49765 -2.36373,-0.82831 -3.53554,-1.41422 -3.00357,-1.50178 -5.77293,5.06583 -6.71751,6.01041 -0.89856,0.89856 -3.596,1.97478 -4.5962,2.47487 -5.83843,2.91922 -14.86128,-10.24703 -22.62741,-6.36396 -3.42375,1.71188 -3.32362,7.9901 -0.70711,10.6066 2.12812,2.12813 5.05414,4.07654 7.42462,5.65686 1.56825,1.0455 1.98781,3.75557 2.82843,4.59619 3.24622,3.24623 7.26914,3.73361 10.25305,6.71752 2.34405,2.34405 3.30864,5.42996 5.3033,7.42462 1.06382,1.06382 -5.132,14.31344 -2.82843,16.61701 0.74235,0.74235 1.55983,2.62049 2.47487,3.53553 0.93377,0.93377 9.12558,5.86704 4.5962,8.13173 -8.00963,4.00481 -20.68664,-0.0602 -27.93072,-2.47487 -1.09975,-0.36659 -2.48724,-0.0124 -3.18198,-0.70711 -0.39121,-0.39121 -4.29297,1.46454 -4.5962,1.76777 -1.25705,1.25705 -3.77597,4.61042 -4.59619,7.07106 -0.33573,1.00718 -0.70762,9.54543 0,10.25305 0.82715,0.82715 1.06066,1.94474 1.06066,2.47488 0,5.19488 0.95426,13.57577 0.0884,11.31371 l -168.379803,-0.35356 0,-462.09428"
         inkscape:path-effect="#path-effect4868"
         id="path4866"
         d="m 60.811183,275.14657 c 19.368661,-6.26055 39.749587,-9.37763 60.104077,-9.19238 11.99796,0.1092 24.13924,1.39516 35.35534,5.65685 4.63563,1.76136 9.06837,4.0137 13.43503,6.36396 23.65442,12.73146 46.09977,28.91417 61.51829,50.91169 2.25207,3.21302 4.34418,6.53559 6.36396,9.89949 7.98594,13.30039 14.85434,27.2717 20.5061,41.7193 6.19831,15.84476 10.96784,32.48702 11.3137,49.49748 0.17321,8.51884 -0.76423,17.01633 -1.18668,25.52645 -0.42245,8.51013 -0.31534,17.156 1.89379,25.38524 0.97227,3.6218 2.34223,7.12556 3.36954,10.73214 1.02732,3.60658 1.7122,7.37985 1.26567,11.10321 -0.3904,3.25529 -1.62698,6.3406 -2.85753,9.37953 -1.23055,3.03893 -2.47813,6.11814 -2.89247,9.37047 -0.15837,1.24312 -0.19286,2.49814 -0.25,3.75 -0.3502,7.67301 -1.55656,15.36146 -0.75,23 0.20773,1.96731 0.5532,3.93687 1.28613,5.77433 0.73293,1.83747 1.87556,3.54638 3.46387,4.72567 1.1712,0.86959 2.5452,1.42759 3.75,2.25 1.41993,0.96926 2.57647,2.28602 4,3.25 1.17388,0.79492 2.50028,1.33061 3.75,2 0.88357,0.47327 1.74269,1.02477 2.40733,1.77505 0.66464,0.75029 1.12235,1.72305 1.09267,2.72495 -0.008,0.27158 -0.0506,0.54082 -0.0763,0.8113 -0.0257,0.27048 -0.0333,0.54463 0.0114,0.81263 0.0447,0.268 0.14297,0.52687 0.28791,0.75668 0.14494,0.22981 0.33484,0.42727 0.52696,0.61939 l 6.75,6.75 c 0.26474,0.26474 0.52131,0.54991 0.66198,0.89687 0.14067,0.34696 0.16402,0.73653 0.088,1.10313 -0.0771,0.372 -0.2495,0.72179 -0.48372,1.02092 -0.23421,0.29913 -0.52927,0.54832 -0.85439,0.74486 -0.65025,0.39308 -1.40898,0.57258 -2.16426,0.65556 -0.75528,0.083 -1.51741,0.075 -2.27571,0.12318 -0.7583,0.0482 -1.5238,0.15554 -2.22192,0.45548 -1.17167,0.50339 -2.08188,1.54527 -2.5,2.75 -0.15733,0.45332 -0.24956,0.9339 -0.22223,1.41296 0.0273,0.47906 0.17913,0.95711 0.47223,1.33704 0.21233,0.27523 0.49198,0.49224 0.78897,0.67289 0.29699,0.18065 0.61304,0.32735 0.92365,0.48344 0.3106,0.15608 0.61817,0.32307 0.89036,0.53929 0.27219,0.21623 0.50929,0.48521 0.64702,0.80438 0.15412,0.35715 0.17651,0.76148 0.1153,1.14562 -0.0612,0.38414 -0.20232,0.75118 -0.3653,1.10438 -0.70144,1.52014 -1.83357,2.83869 -3.23011,3.762 -1.39654,0.92332 -3.05317,1.44855 -4.72659,1.49854 -0.91184,-0.0697 -1.84662,0.23108 -2.54678,0.81937 -0.50171,0.42154 -0.88136,0.98245 -1.10736,1.59754 -0.22601,0.61508 -0.30005,1.28275 -0.23671,1.93498 0.12668,1.30445 0.79895,2.51894 1.72234,3.44899 0.92339,0.93004 2.0857,1.59426 3.29897,2.08986 1.21326,0.49561 2.48443,0.83155 3.74738,1.18167 2.09706,0.58136 4.19756,1.20842 6.36396,1.41422 3.41199,0.32412 6.91055,-0.40438 10.25305,0.35355 1.79135,0.4062 3.45939,1.22427 5.20305,1.80185 0.87182,0.28879 1.76796,0.51838 2.68269,0.60054 0.91473,0.0822 1.85097,0.0135 2.72086,-0.28107 1.05727,-0.35804 1.9748,-1.03136 2.85992,-1.71149 0.88512,-0.68014 1.77048,-1.38542 2.79694,-1.82404 1.83381,-0.7836 4.04004,-0.60961 5.74474,0.42523 1.7047,1.03484 2.87262,2.89619 3.09409,4.87807 0.10042,0.89859 0.0175,1.80678 0.0413,2.71065 0.0238,0.90388 0.16719,1.83837 0.6658,2.59265 0.41682,0.63054 1.05484,1.08928 1.73925,1.41006 0.68441,0.32078 1.41995,0.51481 2.14983,0.71126 3.13582,0.84403 6.26822,1.76955 9.19239,3.18198 2.56503,1.23895 5.02423,2.92177 6.51026,5.35202 0.74301,1.21512 1.22327,2.60346 1.29216,4.02608 0.0689,1.42262 -0.28659,2.8774 -1.0849,4.05693 -0.70043,1.03492 -1.72079,1.83344 -2.85431,2.35955 -1.13352,0.52611 -2.37773,0.78839 -3.62475,0.86975 -2.49402,0.16274 -4.97155,-0.3815 -7.43974,-0.77477 -2.46819,-0.39327 -5.04436,-0.62995 -7.42734,0.12372 -1.19149,0.37684 -2.31529,1.00521 -3.18926,1.89843 -0.87397,0.89322 -1.48706,2.05975 -1.62755,3.30149 -0.11205,0.99039 0.0937,2.04285 0.7071,2.82843 0.63396,0.81189 1.62918,1.26234 2.62708,1.5178 0.9979,0.25545 2.03236,0.34619 3.02978,0.60352 1.13226,0.29212 2.21344,0.80277 3.12498,1.53518 0.91154,0.73242 1.64956,1.68981 2.07597,2.77862 0.42641,1.08881 0.53351,2.30865 0.25139,3.44344 -0.28211,1.13479 -0.961,2.17574 -1.91681,2.84936 -1.14447,0.80659 -2.60599,1.05149 -4.00442,0.98226 -1.39843,-0.0692 -2.76378,-0.42689 -4.13128,-0.72743 -1.36751,-0.30053 -2.77151,-0.5464 -4.16267,-0.38809 -0.69559,0.0792 -1.383,0.26081 -2.00895,0.57431 -0.62596,0.3135 -1.18938,0.7616 -1.60258,1.32672 -0.39677,0.54266 -0.64799,1.18122 -0.80292,1.83536 -0.15492,0.65414 -0.21692,1.32649 -0.26252,1.99718 -0.0912,1.34138 -0.1286,2.72972 -0.70233,3.94563 -0.39006,0.82665 -1.02031,1.53596 -1.78705,2.03356 -0.76674,0.4976 -1.66697,0.78369 -2.57956,0.83551 -0.91258,0.0518 -1.83562,-0.12917 -2.66764,-0.50764 -0.83202,-0.37846 -1.57238,-0.95262 -2.15814,-1.65432 -0.63051,-0.75531 -1.07619,-1.64375 -1.53625,-2.51345 -0.46005,-0.8697 -0.94918,-1.74142 -1.64573,-2.4363 -0.80932,-0.80738 -1.86501,-1.33653 -2.96386,-1.65181 -1.09885,-0.31527 -2.24548,-0.42729 -3.38701,-0.48871 -2.28307,-0.12285 -4.66186,-0.0679 -6.7306,-1.04146 -2.0285,-0.9546 -3.52223,-2.81819 -4.4355,-4.86563 -0.91326,-2.04745 -1.30348,-4.28539 -1.6105,-6.50616 -0.30703,-2.22077 -0.54148,-4.46418 -1.1705,-6.61602 -0.62902,-2.15184 -1.69021,-4.2386 -3.3901,-5.70026 -0.49315,-0.42404 -1.03826,-0.79294 -1.63599,-1.04933 -0.59773,-0.25639 -1.25,-0.39799 -1.89955,-0.36489 -0.77517,0.0395 -1.52519,0.32693 -2.17688,0.74852 -0.6517,0.4216 -1.21051,0.97383 -1.70801,1.56961 -0.99498,1.19156 -1.76162,2.56855 -2.83262,3.69228 -1.22227,1.28244 -2.84556,2.20304 -4.5962,2.47487 -2.02919,0.31508 -4.11077,-0.24205 -5.95723,-1.14064 -1.84646,-0.89859 -3.5074,-2.12831 -5.21846,-3.26374 -1.71105,-1.13542 -3.51407,-2.1956 -5.50635,-2.6933 -0.99614,-0.24884 -2.03348,-0.35266 -3.05474,-0.2466 -1.02126,0.10606 -2.02636,0.42602 -2.89063,0.98032 -0.85119,0.54591 -1.55548,1.31439 -2.04219,2.20075 -0.48672,0.88637 -0.75663,1.88834 -0.80031,2.8986 -0.0874,2.02052 0.74734,4.03639 2.13539,5.50725 1.07207,1.13603 2.43345,1.94836 3.76283,2.7685 1.32937,0.82014 2.66837,1.68295 3.66179,2.88836 1.14563,1.3901 1.75818,3.14725 2.82843,4.59619 1.22408,1.6572 2.98814,2.83294 4.80247,3.80912 1.81433,0.97617 3.71999,1.79048 5.45058,2.9084 1.31937,0.85228 2.53532,1.88502 3.4847,3.13634 0.94938,1.25132 1.6252,2.72952 1.8186,4.28828 0.17641,1.42184 -0.0494,2.86876 -0.44714,4.24518 -0.39777,1.37643 -0.96491,2.69667 -1.48959,4.02989 -0.52467,1.33322 -1.01066,2.69275 -1.23519,4.10779 -0.22454,1.41504 -0.17643,2.89907 0.34349,4.23415 0.5252,1.34864 1.49529,2.47012 2.47487,3.53553 1.08099,1.17571 2.20253,2.3276 3.0848,3.65892 0.88227,1.33133 1.52123,2.87571 1.5114,4.47281 -0.009,1.42355 -0.54356,2.82557 -1.42381,3.94438 -0.88024,1.11882 -2.09382,1.95816 -3.42454,2.4639 -2.66142,1.0115 -5.68447,0.68023 -8.34879,-0.3236 -5.32865,-2.00767 -9.43202,-6.48141 -14.73358,-8.55955 -1.01763,-0.3989 -2.08896,-0.70811 -3.18198,-0.70711 -1.67217,0.002 -3.27973,0.73671 -4.5962,1.76777 -2.24679,1.75969 -3.7318,4.35124 -4.59619,7.07106 -1.05486,3.31914 -1.23463,6.9965 0,10.25305 0.31821,0.83934 0.72556,1.64214 1.06066,2.47488 1.44142,3.58196 1.47367,7.70966 0.0884,11.31371 l -168.379803,-0.35356 0,-462.09428"
         style="fill:#e2e3e4;fill-opacity:1;stroke:#000000;stroke-width:1px;stroke-linecap:butt;stroke-linejoin:miter;stroke-opacity:1" />
    </g>
    <path
       style="fill:#e2e3e4;fill-opacity:1;stroke:#000000;stroke-width:3.166435px;stroke-linecap:butt;stroke-linejoin:miter;stroke-opacity:1;display:inline"
       d="m 340.57551,-367.45871 c -0.94986,-2.10055 -1.13553,-4.48597 -0.87156,-6.77614 0.26397,-2.29017 0.95742,-4.50754 1.70722,-6.68753 0.7498,-2.17999 1.56155,-4.34596 2.07559,-6.59325 0.51403,-2.2473 0.72327,-4.60045 0.2552,-6.85777 -0.42338,-2.0418 -1.39337,-3.94923 -2.6717,-5.59667 -1.27834,-1.64744 -2.85964,-3.04323 -4.56482,-4.24347 -3.41037,-2.40046 -7.29428,-4.02272 -10.97049,-5.99205 -5.47098,-2.93078 -10.56157,-6.70227 -14.45997,-11.53172 -3.8984,-4.82944 -6.55635,-10.76995 -6.91348,-16.9662 -0.25949,-4.50218 0.68287,-8.99491 2.00188,-13.30735 1.319,-4.31245 3.01679,-8.50182 4.331,-12.81573 2.41234,-7.91854 3.54468,-16.28451 7.12447,-23.74827 3.15795,-6.58422 8.18511,-12.25241 14.31976,-16.21355 6.13466,-3.96114 13.35628,-6.20861 20.65379,-6.47509 7.29751,-0.26648 14.65186,1.44342 21.10542,4.86047 6.45356,3.41705 11.99364,8.5288 15.95744,14.66174 4.38811,6.78945 6.94381,14.87117 12.66574,20.58183 5.40037,5.38974 12.96638,7.99395 18.99861,12.66573 8.1154,6.28513 13.00733,16.06186 15.04055,26.1231 0.31798,1.57351 0.57251,3.15936 0.79162,4.74966 1.73412,12.58638 1.11429,25.93449 -4.74965,37.20562 -1.20393,2.31409 -2.63688,4.57024 -3.16644,7.12446 -0.35048,1.69049 -0.28704,3.43501 -0.26581,5.16131 0.0212,1.72631 -0.006,3.4833 -0.52579,5.12959 -0.62766,1.9875 -1.93756,3.69155 -3.39421,5.18228 -1.45665,1.49073 -3.08056,2.81149 -4.52189,4.31704 -1.61827,1.69038 -3.00771,3.62571 -3.89587,5.79074 -0.88815,2.16503 -1.25849,4.57014 -0.85377,6.875 0.31772,1.80942 1.10672,3.52449 2.20993,4.99346 1.10322,1.46896 2.5155,2.69492 4.08359,3.65203 3.13617,1.91423 6.8351,2.73523 10.50135,2.97685 7.33251,0.48324 14.79453,-1.22042 21.99396,0.25179 5.97427,1.22167 11.34527,4.57829 15.83217,8.7077 2.21907,2.04227 4.28366,4.32719 5.58133,7.04955 1.29768,2.72235 1.76383,5.94177 0.75152,8.78262 -0.56607,1.58856 -1.57359,3.00573 -2.83063,4.12992 -1.25704,1.12418 -2.75851,1.9604 -4.34837,2.52279 -3.17972,1.12477 -6.64934,1.15372 -10.00105,0.77724 -3.35172,-0.37647 -6.64874,-1.14291 -9.99434,-1.57034 -3.3456,-0.42743 -6.80346,-0.50524 -10.0312,0.47326 -1.11293,0.33739 -2.1942,0.80116 -3.15775,1.45233 -0.96354,0.65118 -1.80791,1.4952 -2.38351,2.50571 -0.81266,1.42667 -1.05339,3.09876 -1.25544,4.72817 -0.20205,1.62941 -0.39118,3.29958 -1.11939,4.77115 -0.68619,1.38666 -1.82495,2.52041 -3.13672,3.34075 -1.31177,0.82033 -2.79317,1.34078 -4.30183,1.68376 -3.01732,0.68595 -6.15518,0.68094 -9.18523,1.30832 -3.81445,0.78979 -7.35234,2.55842 -10.73834,4.48426 -3.38599,1.92585 -6.68361,4.03327 -10.25353,5.59193 -3.56993,1.55867 -7.4841,2.55822 -11.35494,2.12186 -1.93542,-0.21818 -3.83929,-0.79923 -5.51864,-1.78575 -1.67936,-0.98652 -3.12854,-2.38546 -4.08983,-4.07938 -1.32753,-2.33929 -1.67606,-5.14736 -1.34786,-7.81699 0.3282,-2.66962 1.29468,-5.2246 2.483,-7.63759 2.37664,-4.82597 5.59013,-9.24436 7.48516,-14.27898 1.89502,-5.03461 2.31792,-10.70119 0.60603,-15.80098 -0.85594,-2.5499 -2.19177,-4.92452 -3.81009,-7.07292 -1.61832,-2.14841 -3.51432,-4.0697 -5.41624,-5.97162 l -7.91608,-7.91609 c -3.70209,-3.70209 -7.86139,-6.94375 -12.47872,-9.41177 -2.30867,-1.23402 -4.67373,-2.38123 -6.83606,-3.85672 -2.16233,-1.47549 -4.1465,-3.34486 -5.22509,-5.7301"
       id="path4876"
       inkscape:path-effect="#path-effect4878"
       inkscape:original-d="m 340.57551,-367.45871 c -2.50736,-9.87773 6.06588,-18.21633 3.16645,-26.91469 -5.08596,-15.25781 -11.7789,-9.40407 -18.20701,-15.83219 -9.52411,-9.5241 -16.149,-18.049 -21.37345,-28.49792 -4.56256,-9.12515 2.49953,-22.28973 6.33288,-26.12308 4.18247,-4.18245 0.9339,-20.65297 7.12447,-23.74827 9.41819,-4.70903 59.2057,-8.29868 72.03641,-3.16643 9.35772,3.74308 6.07002,13.98611 12.66574,20.58183 3.64957,3.64961 14.39071,8.05782 18.99861,12.66573 6.69629,6.69632 8.30526,19.38781 15.04055,26.1231 0.58918,0.58918 0.52179,3.94021 0.79162,4.74966 5.20478,15.61436 1.89555,23.91515 -4.74965,37.20562 -1.48748,2.97494 -1.31696,5.27498 -3.16644,7.12446 -1.84707,1.84708 1.05546,8.44383 -0.7916,10.2909 -2.43975,2.43978 -7.2033,8.78656 -7.9161,9.49932 -1.10988,1.10993 -6.9737,10.44171 -4.74964,12.66574 10.04047,10.04047 33.40104,6.48635 38.78883,11.87413 3.11759,3.11761 11.43079,6.507 15.83217,8.7077 2.86786,1.43391 10.19874,11.96632 6.33285,15.83217 -7.9324,7.93243 -32.52702,1.65429 -37.20559,6.33287 -1.36462,1.36466 -3.98235,2.39916 -5.54126,3.95804 -3.43869,3.43867 1.03013,6.09435 -2.37483,9.49932 -2.88282,2.88283 -14.04465,3.7537 -16.62378,6.33283 -7.63166,7.63167 -29.57695,18.71122 -41.95528,6.33292 -7.35622,-7.35626 7.52427,-51.0548 0,-58.57908 -3.05193,-3.05193 -5.61948,-5.6195 -7.91608,-7.91609 -7.43778,-7.43779 -19.66273,5.38683 -24.53987,-18.99859 z"
       inkscape:connector-curvature="0"
       inkscape:export-filename="C:\Users\TyTy\Desktop\luke4bart\images\back.png"
       inkscape:export-xdpi="180"
       inkscape:export-ydpi="180" />
    <path
       style="fill:#e2e3e4;fill-opacity:1;stroke:#000000;stroke-width:3.166435px;stroke-linecap:butt;stroke-linejoin:miter;stroke-opacity:1;display:inline"
       d="m 734.79666,24.387604 c -4.13321,1.497446 -8.74804,1.630696 -12.96076,0.374233 -4.21273,-1.256462 -8.00061,-3.895855 -10.63827,-7.41274 -2.63766,-3.516886 -4.11087,-7.8922805 -4.13751,-12.2883062 -0.0266,-4.39602555 1.39343,-8.7889529 3.98828,-12.3375466 2.23275,-3.0534052 5.27218,-5.4461012 8.54484,-7.3429672 3.27267,-1.896867 6.79144,-3.325505 10.3044,-4.728208 3.51296,-1.402704 7.04475,-2.791221 10.35846,-4.615452 3.3137,-1.824231 6.42431,-4.109634 8.78953,-7.061613 2.41025,-3.008174 3.98238,-6.64095 4.79919,-10.408075 0.81681,-3.767125 0.89614,-7.669611 0.5133,-11.505213 -0.76568,-7.671204 -3.34008,-15.024458 -5.4601,-22.436552 -2.12003,-7.412094 -3.80998,-15.154391 -2.74804,-22.790222 0.53097,-3.817912 1.76418,-7.565792 3.84435,-10.810982 2.08018,-3.24519 5.03087,-5.97104 8.55057,-7.5427 4.46838,-1.99527 9.78877,-2.0135 14.24897,0 2.82402,1.27487 5.26584,3.30512 7.2755,5.66344 2.00966,2.35831 3.60512,5.04284 4.9997,7.8097 2.78918,5.533716 4.8308,11.477653 8.30662,16.607974 3.58745,5.295079 8.60173,9.533796 14.15764,12.7023 5.55592,3.168505 11.6518,5.302589 17.85346,6.866883 12.40333,3.128589 25.29577,4.030271 37.65051,7.345537 24.21767,6.49856 45.00832,21.840912 68.07837,31.66433 15.88311,6.763161 32.74563,10.865907 49.16038,16.210969 16.41475,5.345063 32.72695,12.1332105 45.83265,23.369471 9.9264,8.510483 17.6558,19.265659 26.9147,28.49793 2.4013,2.394348 4.9386,4.710061 7.9161,6.33285 4.4052,2.400887 9.4955,3.144933 14.2489,4.74967 10.8838,3.674367 19.6328,11.693317 28.4979,18.99859 16.1982,13.348038 34.0019,25.087342 47.4965,41.163666 4.0922,4.87515 7.7931,10.15391 12.6659,14.24895 4.1014,3.44675 8.8995,5.94041 13.6133,8.48624 4.7139,2.54583 9.442,5.21326 13.3012,8.92917 4.2872,4.12801 7.3154,9.37018 10.0761,14.64267 2.7606,5.27249 5.3357,10.68933 8.9226,15.43846 7.7863,10.30919 19.6539,16.6282 31.3764,22.05843 11.7226,5.43023 23.941,10.45351 33.5355,19.10521 11.239,10.13462 17.8433,24.30058 26.9147,36.41399 10.0736,13.45163 23.1455,24.30454 34.7909,36.42101 11.6454,12.11648 22.2211,26.23231 25.3714,42.73987 2.0893,10.94816 0.7872,22.35878 3.1665,33.24761 1.3359,6.11365 3.8051,11.92545 5.3141,17.9987 0.7544,3.03662 1.2681,6.14876 1.2613,9.2777 -0.01,3.12894 -0.5466,6.28204 -1.8259,9.1375 -2.0126,4.4921 -5.7685,8.03862 -10.0137,10.53007 -4.2453,2.49145 -8.9841,4.01264 -13.7345,5.30213 -33.3009,9.03944 -68.4224,7.48411 -102.9092,6.3329 -8.7714,-0.2928 -17.7856,-0.60659 -25.8456,-4.07918 -4.03,-1.73629 -7.7623,-4.2723 -10.5621,-7.65112 -2.7999,-3.37883 -4.6254,-7.63182 -4.7559,-12.018 -0.047,-1.5831 0.1221,-3.17052 0,-4.7496 -0.2567,-3.31852 -1.8173,-6.46317 -4.0566,-8.92572 -2.2392,-2.46255 -5.1268,-4.27553 -8.1945,-5.56694 -6.1354,-2.58281 -12.9008,-3.12685 -19.4132,-4.50594 -20.3819,-4.31612 -38.1799,-16.86161 -52.9292,-31.57592 -14.7493,-14.7143 -26.969,-31.72657 -40.4806,-47.58497 -10.8921,-12.78394 -22.9341,-25.31718 -28.498,-41.16363 -1.8907,-5.385 -3.0427,-11.16869 -6.3328,-15.83219 -2.6366,-3.73715 -6.4596,-6.46534 -10.3954,-8.79489 -3.9359,-2.32955 -8.0729,-4.34447 -11.7697,-7.03729 -8.7102,-6.34466 -14.375,-15.98418 -19.1399,-25.6495 -4.76497,-9.66531 -8.95817,-19.76603 -15.69091,-28.1799 -9.96802,-12.45698 -24.71607,-20.19062 -39.75642,-25.51282 -15.04034,-5.32219 -30.75659,-8.57967 -45.73725,-14.0676 -3.89193,-1.42575 -7.75237,-3.01217 -11.25748,-5.22442 -3.50512,-2.21224 -6.66145,-5.08812 -8.73972,-8.67429 -2.07828,-3.58616 -3.00764,-7.92664 -2.07063,-11.9642 0.46851,-2.01878 1.39705,-3.937316 2.74192,-5.514111 1.34487,-1.576796 3.10896,-2.804238 5.07697,-3.453775 1.77874,-0.58707 3.68804,-0.698542 5.55491,-0.545641 1.86687,0.152901 3.7023,0.563375 5.52375,1.00029 3.64291,0.873831 7.41297,1.86399 11.08632,1.128581 2.6452,-0.529572 5.08934,-1.96287 6.89917,-3.963375 1.80984,-2.000506 2.98607,-4.552205 3.40657,-7.216918 0.4205,-2.664713 0.0933,-5.43375 -0.86574,-7.955214 -0.95903,-2.521464 -2.54137,-4.79392 -4.52202,-6.625463 -3.9613,-3.663085 -9.43855,-5.473803 -14.83392,-5.479134 -5.39537,-0.0053 -10.70323,1.69791 -15.41559,4.325404 -11.18409,6.235966 -18.98493,17.357162 -30.08111,23.74824 -8.68589,5.00282 -19.03395,6.799551 -29.0114,5.838603 C 812.96587,97.343599 803.35134,93.721404 794.75206,88.57113 777.55351,78.270581 764.64328,62.280199 752.21205,46.552644 746.38553,39.181138 740.58037,31.79275 734.79666,24.387604"
       id="path4880"
       inkscape:path-effect="#path-effect4882"
       inkscape:original-d="M 734.79666,24.387604 C 721.16002,18.131224 711.0484,8.1106342 711.0484,-7.2767558 c 0,-14.0201502 28.43906,-14.1900402 37.99723,-23.7482402 14.79108,-14.79105 -28.24044,-85.493744 9.49927,-85.493744 2.2677,0 12.80575,-1.44326 14.24897,0 7.06693,7.06694 11.27786,25.429134 20.58182,30.081114 19.90151,9.95076 47.31247,15.74014 69.66161,26.91472 22.84942,11.42471 44.33205,23.7489 68.07837,31.66433 12.69913,4.2331 90.74373,35.3311102 94.99303,39.58044 8.8651,8.86519 17.218,18.80124 26.9147,28.49793 0.7799,0.77998 16.6225,6.33285 7.9161,6.33285 -5.0066,0 10.7088,1.20952 14.2489,4.74967 7.9411,7.94103 20.7483,11.24896 28.4979,18.99859 12.9483,12.94822 26.7146,30.772646 47.4965,41.163666 5.7112,2.85555 7.6055,11.71882 12.6659,14.24895 7.5768,3.78851 21.2035,11.70419 26.9145,17.41541 6.7249,6.72483 12.0929,23.17531 18.9987,30.08113 2.2278,2.22767 59.4095,38.41248 64.9119,41.16364 13.2308,6.61547 15.3464,24.84565 26.9147,36.41399 31.6219,31.62186 40.4327,39.70179 60.1623,79.16088 4.5755,9.15102 0.6391,23.13791 3.1665,33.24761 2.008,8.0324 9.2268,27.4593 4.7495,36.4139 -5.0359,10.0719 -18.2246,10.3087 -23.7482,15.8322 -10.9239,10.924 -87.857,21.3851 -102.9092,6.3329 -9.76,-9.76 -31.668,-14.2526 -41.1636,-23.7483 -6.5993,-6.5992 3.1452,-1.6045 0,-4.7496 -7.9982,-7.9982 -22.3483,-12.0116 -31.6643,-18.9986 -35.5671,-26.67531 -75.3859,-43.11289 -93.4098,-79.16089 -7.8121,-15.62402 -17.9881,-30.65376 -28.498,-41.16363 -4.0191,-4.01916 -2.3137,-11.81303 -6.3328,-15.83219 -7.8038,-7.80377 -16.0309,-9.69799 -22.1651,-15.83218 -11.8071,-11.80704 -9.9303,-41.3791 -34.83081,-53.8294 -27.67026,-13.83516 -63.95553,-18.04224 -85.49367,-39.58042 -4.42336,-4.42337 -21.04304,-28.03673 -14.24894,-34.830796 5.096,-5.09597 18.10115,5.64713 22.16498,1.58323 10.33926,-10.33925 -22.50139,-25.49967 -25.33153,-26.9147 -40.71241,-20.35619 -19.65662,13.32381 -30.08111,23.74824 -10.59355,10.593606 -94.90205,-41.07268 -99.74267,-45.9133 -7.3687,-7.3687 -10.17641,-13.11634 -17.41539,-22.16504 z"
       inkscape:connector-curvature="0"
       inkscape:export-filename="C:\Users\TyTy\Desktop\luke4bart\images\back.png"
       inkscape:export-xdpi="180"
       inkscape:export-ydpi="180" />
    <path
       style="fill:#e2e3e4;fill-opacity:1;stroke:#000000;stroke-width:3.166435px;stroke-linecap:butt;stroke-linejoin:miter;stroke-opacity:1;display:inline"
       d="m 800.15256,-1213.5958 c 21.89468,14.6743 40.4146,34.3517 53.73624,57.0947 6.92134,11.8163 12.43276,24.3935 17.91208,36.9436 3.96164,9.074 8.01614,18.3125 14.55345,25.7486 3.65791,4.1608 8.08192,7.7455 10.80867,12.5681 1.36338,2.4113 2.26973,5.1304 2.2583,7.9005 -0.0114,2.77 -1.00461,5.5887 -2.99135,7.519 -1.45407,1.4128 -3.36719,2.2949 -5.3468,2.7323 -1.97962,0.4374 -4.03118,0.451 -6.05274,0.2977 -4.04311,-0.3068 -8.08398,-1.2722 -12.11005,-0.791 -2.87137,0.3432 -5.65637,1.4377 -7.96144,3.1839 -2.30508,1.7462 -4.11976,4.1442 -5.12454,6.8559 -1.00478,2.7116 -1.189,5.7291 -0.47061,8.5303 0.7184,2.8012 2.34389,5.3702 4.60055,7.1785 2.17987,1.7468 4.8798,2.7563 7.62778,3.258 2.74798,0.5018 5.56014,0.5201 8.35283,0.4566 2.79268,-0.064 5.58955,-0.2074 8.37697,-0.025 2.78741,0.1828 5.58712,0.7042 8.10805,1.9076 2.78107,1.3275 5.1275,3.4411 7.09682,5.8115 1.96931,2.3703 3.58984,5.0058 5.21767,7.6225 7.78407,12.5125 16.00029,25.04309 20.15105,39.18264 4.01187,13.66641 4.10907,28.48839 10.07552,41.42158 3.97275,8.61153 10.32354,15.86777 16.64895,22.93391 6.32541,7.06613 12.792,14.18792 17.06976,22.65207 2.13888,4.23208 3.70642,8.78191 4.30621,13.48569 0.59979,4.70378 0.2102,9.568 -1.43501,14.0153 -1.64522,4.44731 -4.58033,8.45752 -8.5065,11.11655 -3.92617,2.65904 -8.8531,3.90086 -13.52986,3.1178 -5.21057,-0.87243 -9.77672,-4.13848 -13.23172,-8.13525 -3.455,-3.99677 -5.943,-8.719 -8.42357,-13.38355 -2.48056,-4.66455 -5.01901,-9.36675 -8.55278,-13.29405 -3.53377,-3.92731 -8.21133,-7.06368 -13.45247,-7.7283 -2.65293,-0.33642 -5.4157,-0.0166 -7.83657,1.11948 -2.29167,1.07543 -4.22361,2.85935 -5.59891,4.98465 -1.3753,2.12529 -2.20483,4.58219 -2.54249,7.09103 -0.67533,5.0177 0.59122,10.12119 2.5439,14.79242 4.03791,9.65953 10.89003,17.81308 16.94864,26.3515 6.0586,8.53841 11.54516,18.05264 12.15845,28.5042 0.60463,10.30397 -3.58142,20.21884 -5.32319,30.39251 -0.87088,5.08684 -1.12212,10.36429 0.1369,15.36921 1.25902,5.00492 4.15842,9.73316 8.54474,12.45245 3.13048,1.94073 6.98731,2.77866 10.59301,2.02683 1.80285,-0.37592 3.52777,-1.14071 4.99407,-2.25496 1.4663,-1.11425 2.66993,-2.57906 3.44449,-4.24988 0.94083,-2.02949 1.23464,-4.32587 1.02836,-6.5533 -0.20628,-2.22742 -0.89771,-4.39103 -1.84447,-6.41775 -1.89353,-4.05345 -4.77415,-7.54875 -7.2299,-11.28842 -2.45575,-3.73968 -4.55048,-7.94961 -4.54163,-12.42352 0.004,-2.23695 0.559,-4.49628 1.75886,-6.38422 1.19986,-1.88794 3.06876,-3.37962 5.23127,-3.95193 1.81772,-0.48106 3.74285,-0.30944 5.59751,0 12.57175,2.09751 23.85504,10.77696 29.10709,22.39008 2.79054,7.1907 4.67592,14.73213 5.59759,22.39005 1.11616,9.27394 0.82047,18.65153 1.11949,27.98761 1.43136,44.69089 16.48767,88.61154 13.43397,133.22095 -0.76558,11.1838 -2.73648,22.48295 -7.83647,32.46561 -2.31983,4.54082 -5.28273,8.77799 -8.95604,12.31458 -5.08255,4.89338 -11.52803,8.38669 -18.43596,9.82124 -6.90794,1.43456 -14.25733,0.78405 -20.74666,-1.98473 -7.67311,-3.27386 -13.97597,-9.43719 -17.91209,-16.79258 -1.74924,-3.26879 -3.05922,-6.77407 -5.03996,-9.908 -0.99038,-1.56696 -2.15093,-3.03891 -3.55085,-4.254 -1.39992,-1.21509 -3.04787,-2.16883 -4.84315,-2.63055 -3.1835,-0.81876 -6.69125,0.002 -9.34268,1.94524 -2.65142,1.94292 -4.45744,4.93074 -5.21096,8.13031 -1.02563,4.35501 -0.15582,9.01553 1.80974,13.03481 1.96556,4.01928 4.96652,7.45269 8.26578,10.47477 13.87948,12.71343 32.82833,18.38234 51.44599,21.14888 18.61767,2.76653 37.59388,3.02917 56.02641,6.83874 4.6412,0.95923 9.2974,2.16532 13.4341,4.47798 7.9226,4.42917 13.3761,12.99311 14.0384,22.04554 0.6624,9.05244 -3.4865,18.31896 -10.68,23.85415 -13.1476,10.73433 -28.4784,18.783 -44.78009,23.50958 -14.16998,4.1085 -28.94167,5.70698 -43.66064,6.717 -20.16466,1.38371 -40.43306,1.69944 -60.45324,4.47802 -9.79014,1.35876 -19.49304,3.3034 -29.10709,5.59752 -12.61293,3.00972 -25.27381,6.70642 -36.25515,13.60241 -5.49067,3.44799 -10.51824,7.68758 -14.56284,12.75486 -4.0446,5.06728 -7.08978,10.9786 -8.51569,17.30338 -1.97217,8.74776 -0.64704,18.39013 4.47801,25.74858 3.74832,5.38177 9.29759,9.31452 15.25913,12.04829 5.96153,2.73376 12.36503,4.35129 18.75083,5.8463 6.38579,1.495 12.82273,2.88998 18.95501,5.2156 6.13229,2.32562 12.00597,5.64634 16.44424,10.47492 4.03179,4.38635 6.75683,9.92349 7.97671,15.75506 1.21989,5.83157 0.9533,11.94371 -0.56784,17.70405 -3.0423,11.52066 -11.02157,21.36661 -20.84293,28.11363 -8.69588,5.97385 -18.82006,9.70055 -29.19966,11.58978 -10.3796,1.88924 -21.02628,1.98324 -31.53868,1.09177 -21.0248,-1.78293 -41.51959,-7.45323 -62.40703,-10.44254 -5.57843,-0.79836 -11.33307,-1.39643 -16.79258,0 -7.12385,1.82214 -12.99073,6.85101 -17.91206,12.31451 -4.5416,5.04194 -8.56318,10.65944 -11.00508,16.99067 -2.4419,6.33122 -3.22037,13.44178 -1.30944,19.95297 1.94092,6.61335 6.56825,12.25977 12.26348,16.14152 5.69522,3.88176 12.40666,6.0919 19.21343,7.17428 13.61352,2.16475 27.50804,-0.0281 41.29082,0.19377 7.47113,0.12026 14.97866,0.95011 22.39011,0 5.07871,-0.65106 10.0093,-2.12649 15.00183,-3.26312 4.99252,-1.13663 10.15585,-1.93832 15.22476,-1.2149 6.10777,0.87168 11.90969,4.06708 15.67301,8.95605 2.79079,3.62554 4.41016,8.03708 5.34251,12.51634 0.93234,4.47926 1.21414,9.06391 1.57791,13.62469 0.36378,4.56078 0.8175,9.14536 2.07818,13.5435 1.26068,4.39815 3.37992,8.63788 6.67443,11.81266 4.59622,4.4292 10.95446,6.37547 16.7926,8.95601 7.50199,3.31599 14.39415,7.84356 21.27062,12.31455 15.18902,9.875708 30.49021,19.578913 45.8996,29.107114 27.89695,6.279034 55.26592,14.902126 81.72382,25.74858 8.9775,3.680318 17.8499,7.615849 26.8681,11.19503 8.2466,3.272908 16.6232,6.251426 24.6291,10.07553 11.4378,5.463404 22.0598,12.642888 31.346,21.2706 6.3849,5.9321067 12.1187,12.52057978 17.9121,19.0315402 7.2064,8.0989178 14.5607,16.1324038 22.9837,22.9572648 8.4229,6.824861 18.0051,12.442209 28.5136,15.105865 9.6283,2.440535 19.6976,2.337905 29.6272,2.084237 9.9295,-0.253668 19.959,-0.635571 29.7065,1.274273 12.3286,2.415576 23.7612,8.454301 33.6019,16.26383 9.8408,7.809528 18.1758,17.360061 25.7318,27.39681 9.7007,12.885516 18.3287,26.932046 22.39,42.541176 1.1447,4.3997 1.9185,8.89914 2.239,13.43401 0.3074,4.3485 0.1983,8.71804 0.4915,13.06751 0.2932,4.34948 1.0093,8.73736 2.8669,12.6811 3.0778,6.53409 8.9818,11.26005 15.006,15.24445 6.0243,3.9844 12.4509,7.53949 17.4598,12.74313 4.6139,4.79329 7.8118,10.78267 10.2899,16.95703 2.4781,6.17437 4.2892,12.59296 6.5026,18.86707 8.4592,23.97793 22.6253,45.43801 35.8241,67.17025 11.3053,18.61445 22.118,37.78289 36.9436,53.7362 12.0532,12.97005 26.6328,23.669 36.9436,38.0631 12.1672,16.98573 17.5205,37.89221 27.9877,55.9752 3.2376,5.59329 6.9789,10.94455 9.362,16.95188 1.1916,3.00366 2.0336,6.16601 2.24,9.39078 0.2065,3.22478 -0.2384,6.5178 -1.5263,9.48144 -1.2155,2.79716 -3.1652,5.25497 -5.5335,7.1766 -2.3684,1.92163 -5.1478,3.31375 -8.0706,4.18484 -5.8456,1.74217 -12.155,1.39339 -18.0903,-0.0133 -11.8705,-2.81342 -22.4809,-9.67552 -34.3565,-12.46752 -16.4028,-3.85636 -33.5316,0.36375 -50.3777,0 -17.8218,-0.38482 -35.0676,-5.89021 -52.4271,-9.94106 -17.3596,-4.05086 -35.8095,-6.6277 -52.8062,-1.25404 -6.0819,1.92285 -11.8214,4.82228 -17.9121,6.717 -14.7827,4.59864 -30.6687,3.04499 -46.11,1.92928 -15.4412,-1.11571 -31.5982,-1.62441 -45.6894,4.78772 -6.621,3.01286 -12.5054,7.44804 -17.912,12.3146 -3.7419,3.36808 -7.3078,6.98959 -10.0755,11.195 -2.8806,4.37702 -4.8576,9.36614 -5.5975,14.5535 -1.2963,9.08792 1.2049,18.29163 4.478,26.8682 13.6567,35.78534 40.4227,64.749 60.4531,97.3968 2.979,4.85554 5.8139,9.80189 8.9562,14.5534 9.6553,14.59989 22.0532,27.13424 33.585,40.3023 5.0146,5.72616 9.9882,11.78417 12.3145,19.0315 2.7518,8.57296 1.5124,17.82993 1.0433,26.82149 -0.2345,4.49578 -0.2663,9.03193 0.5052,13.46722 0.7715,4.4353 2.3835,8.79104 5.1686,12.32799 2.8762,3.65263 6.8621,6.27326 10.9873,8.41737 4.1252,2.14411 8.4588,3.87739 12.5223,6.13623 11.3416,6.30465 20.0842,16.41933 27.5018,27.06643 7.4176,10.64711 13.7709,22.03912 21.7563,32.26727 4.3655,5.59161 9.3385,11.06533 11.1951,17.912 1.0044,3.70404 1.0193,7.67156 0.043,11.38301 -0.9767,3.71145 -2.9426,7.15775 -5.6401,9.88759 -1.4544,0.68246 -2.6384,1.92272 -3.2527,3.40719 -0.6142,1.48447 -0.6528,3.19872 -0.1059,4.70931 0.6418,1.77276 2.0317,3.19292 3.6043,4.23286 1.5726,1.03994 3.3375,1.74474 5.0719,2.48404 1.387,0.59122 2.7654,1.20986 4.1982,1.6792 0.2804,0.0918 0.5628,0.17793 0.8396,0.2799 1.5881,0.58492 2.9527,1.68177 4.044,2.97533 1.0913,1.29356 1.9265,2.78262 2.673,4.30147 3.6075,7.33965 5.265,15.62692 4.7579,23.7895 l 407.5177,0 0,-2150.24378 -970.06844,-2.2822"
       id="path4884"
       inkscape:path-effect="#path-effect4886"
       inkscape:original-d="m 800.15256,-1213.5958 c 23.83031,19.2002 34.14295,37.5015 53.73624,57.0947 4.96772,4.9678 14.46359,33.4952 17.91208,36.9436 2.63258,2.6327 14.55345,20.4236 14.55345,25.7486 0,5.3581 16.77392,21.2893 10.07562,27.9876 -5.12979,5.1297 -16.17651,-1.4275 -23.50959,2.239 -4.67426,2.3371 -12.32525,19.0102 -8.95604,25.7486 6.60513,13.2101 24.04715,1.3883 32.46563,5.5976 4.84247,2.4212 8.99002,10.1095 12.31449,13.434 7.73462,7.7345 14.85626,28.59289 20.15105,39.18264 5.33198,10.66378 2.34591,33.6919 10.07552,41.42158 2.61653,2.6165 19.11445,82.76045 14.55355,87.32132 -14.44991,14.44996 -22.73265,-42.54115 -43.66054,-42.54115 -2.70139,0 -6.45052,-0.26662 -7.83657,1.11948 -1.45853,1.45851 -10.75089,21.71476 -5.5975,26.8681 1.65487,1.65493 27.75107,50.78765 29.10709,54.8557 5.07835,15.23504 -8.35345,46.50223 3.35845,58.21417 5.03927,5.03922 14.80632,3.97264 19.03157,-4.47801 4.4783,-8.95657 -9.41422,-43.20241 -5.59751,-47.01914 0.5587,-0.55862 4.72099,0 5.59751,0 14.66794,0 25.1316,10.46338 29.10709,22.39008 2.9065,6.89891 1.85658,14.90818 5.59759,22.39005 3.76499,7.53001 -2.66769,20.41337 1.11949,27.98761 13.72167,27.44328 27.68427,104.72047 13.43397,133.22095 -4.73175,9.46358 -1.08503,25.71414 -7.83647,32.46561 -2.77445,2.7745 -6.24984,9.60836 -8.95604,12.31458 -0.45931,0.45931 -35.97331,11.04586 -39.18262,7.83651 -5.91994,-5.91996 -12.10853,-10.98903 -17.91209,-16.79258 -2.9232,-2.92325 -7.78436,-16.79255 -13.43396,-16.79255 -9.94867,0 -14.55364,0.26629 -14.55364,10.07555 0,12.23221 5.30234,13.96313 10.07552,23.50958 18.64721,37.29443 73.71296,11.1079 107.4724,27.98762 3.809,1.90445 10.3396,1.38351 13.4341,4.47798 3.8313,3.83135 12.2185,41.46963 3.3584,45.89969 -11.0682,13.93592 -32.17035,10.89985 -44.78009,23.50958 -1.45382,1.45382 -39.02772,4.40057 -43.66064,6.717 -14.48634,7.24316 -48.16292,-1.66715 -60.45324,4.47802 -9.23289,4.61647 -20.07327,1.08063 -29.10709,5.59752 -22.93239,11.46619 -47.25753,19.50838 -59.33368,43.66065 -2.61256,5.22512 -1.9107,25.74858 4.47801,25.74858 4.5437,0 66.62788,30.80377 69.40921,33.58511 17.17876,17.17875 20.24016,61.57274 -13.43406,61.57274 -41.18236,0 -80.9736,2.23901 -123.14537,2.23901 -2.58938,0 -15.11959,-1.67298 -16.79258,0 -4.7855,4.78552 -12.0764,6.47886 -17.91206,12.31451 -0.0406,0.0409 -18.69563,30.56253 -12.31452,36.94364 20.41712,20.41713 37.1806,23.50957 72.76773,23.50957 6.29659,0 16.46801,1.97406 22.39011,0 3.08851,-1.02952 27.84179,-6.86282 30.22659,-4.47802 3.67388,3.67393 12.1052,5.38822 15.67301,8.95605 7.06104,7.06099 -0.87331,34.95079 15.67303,51.49719 5.96846,5.96835 9.55599,6.5438 16.7926,8.95601 7.97456,2.6582 13.94784,8.65316 21.27062,12.31455 21.86095,10.930494 35.84324,8.99432 45.8996,29.107114 22.70802,6.3995 67.96642,11.99118 81.72382,25.74858 3.8279,3.82795 21.2643,5.59125 26.8681,11.19503 5.559,5.55896 18.9319,4.3783 24.6291,10.07553 6.368,6.36801 21.9364,16.56574 31.346,21.2706 5.9376,2.9687702 12.3537,13.4730302 17.9121,19.0315402 10.9771,10.9771298 38.7576,33.8165698 51.4973,38.0631298 12.426,4.142 58.6976,2.72246 59.3337,3.35851 16.7043,16.70437 40.7536,25.08068 59.3337,43.66064 10.5125,10.512516 11.4772,31.628286 22.39,42.541176 2.2763,2.27628 -0.038,11.15769 2.239,13.43401 2.9486,2.94859 1.4914,22.01426 3.3584,25.74861 2.3835,4.76687 26.3338,21.85564 32.4658,27.98758 9.3446,9.34479 9.3391,24.64399 16.7925,35.8241 14.7215,22.08239 25.7012,46.92445 35.8241,67.17025 3.9913,7.85935 35.6584,53.0936 36.9436,53.7362 4.897,2.4485 34.5081,30.7567 36.9436,38.0631 5.9768,17.9304 19.6762,39.3525 27.9877,55.9752 1.2029,2.4062 14.2225,31.6772 10.0757,35.8241 -2.2449,2.2448 -61.7924,1.0098 -66.0509,-1.1194 -13.3119,-6.6561 -36.1697,4.7358 -50.3777,0 -8.7195,-2.9065 -95.874,-15.8749 -105.2333,-11.1951 -4.5889,2.2944 -12.6661,5.4055 -17.9121,6.717 -29.2579,7.3145 -70.9772,-14.1053 -91.7994,6.717 -4.4438,4.444 -15.2861,7.0628 -17.912,12.3146 -1.563,3.1261 -8.4815,9.6009 -10.0755,11.195 -2.9054,2.9054 -2.5212,11.4772 -5.5975,14.5535 -5.1754,5.1754 3.1131,22.7735 4.478,26.8682 13.2841,39.8524 31.3447,68.2883 60.4531,97.3968 4.3565,4.3563 5.6505,11.2479 8.9562,14.5534 12.6768,12.6771 21.9239,28.641 33.585,40.3023 5.8117,5.8116 7.4193,14.1364 12.3145,19.0315 11.2352,11.235 -4.5222,41.3773 6.7171,52.6167 6.5052,6.5053 16.8852,7.9292 23.5096,14.5536 17.5616,17.5616 32.703,37.2601 49.2581,59.3337 4.6211,6.1613 7.1973,13.9143 11.1951,17.912 3.9344,3.9344 -4.0251,18.1256 -5.5975,21.2706 -1.1139,1.1071 -4.0086,6.8162 -3.3586,8.1165 1.9678,3.9355 3.7819,5.0856 8.6762,6.7169 1.4275,0.4759 3.4103,0.8913 4.1982,1.6792 0.2086,0.2087 1.1345,0.2799 0.8396,0.2799 -0.1629,0 5.7114,5.7685 6.717,7.2768 5.0355,7.5533 4.7579,12.9376 4.7579,23.7895 l 407.5177,0 0,-2150.24378 z"
       inkscape:connector-curvature="0"
       inkscape:export-filename="C:\Users\TyTy\Desktop\luke4bart\images\back.png"
       inkscape:export-xdpi="180"
       inkscape:export-ydpi="180" />
    <path
       style="fill:#e2e3e4;fill-opacity:1;stroke:#000000;stroke-width:3.166435px;stroke-linecap:butt;stroke-linejoin:miter;stroke-opacity:1;display:inline"
       d="m -498.47182,-1124.0355 c -1.68552,-2.2735 -2.75997,-4.9957 -3.08167,-7.8075 -0.32169,-2.8119 0.11017,-5.7064 1.23863,-8.3018 1.12847,-2.5955 2.95073,-4.8855 5.22649,-6.568 2.27575,-1.6825 4.99935,-2.7533 7.8116,-3.0713 2.86991,-0.3245 5.77929,0.1244 8.56964,0.8698 2.79035,0.7454 5.49217,1.7846 8.2406,2.6722 2.74842,0.8876 5.57304,1.6284 8.45876,1.748 2.88573,0.1195 5.85668,-0.4173 8.31612,-1.9315 2.47603,-1.5244 4.29657,-3.9512 5.54323,-6.5781 1.24665,-2.6268 1.96534,-5.468 2.64139,-8.296 0.67604,-2.828 1.32199,-5.6799 2.43706,-8.3653 1.11507,-2.6854 2.73826,-5.2254 5.05138,-6.9872 2.39679,-1.8256 5.39048,-2.719 7.83652,-4.478 2.2877,-1.6452 4.00485,-3.9927 5.22732,-6.5315 1.22246,-2.5389 1.97711,-5.276 2.60922,-8.022 1.10204,-4.7875 1.85106,-9.6562 2.23897,-14.5536 l -77.24574,0 -1.11952,86.2018"
       id="path4888"
       inkscape:path-effect="#path-effect4890"
       inkscape:original-d="m -498.47182,-1124.0355 c 4.63533,-7.9863 5.37561,-19.9292 11.19505,-25.7486 8.45233,-8.4523 26.24457,10.6991 33.58512,3.3585 8.75933,-8.7593 9.04215,-23.5957 15.67306,-30.2266 1.64773,-1.6477 5.7618,-2.4033 7.83652,-4.478 4.19804,-4.198 4.12877,-10.8458 7.83654,-14.5535 1.69376,-1.6938 1.35526,-12.7861 2.23897,-14.5536 l -77.24574,0 z"
       inkscape:connector-curvature="0"
       inkscape:export-filename="C:\Users\TyTy\Desktop\luke4bart\images\back.png"
       inkscape:export-xdpi="180"
       inkscape:export-ydpi="180" />
    <path
       style="fill:#e2e3e4;fill-opacity:1;stroke:#000000;stroke-width:3.166435px;stroke-linecap:butt;stroke-linejoin:miter;stroke-opacity:1;display:inline"
       d="m -495.11332,-1022.1606 c 0.96364,4.0209 3.04136,7.7689 5.94093,10.7166 2.89957,2.9477 6.61276,5.0869 10.61729,6.1166 4.00452,1.0298 8.28903,0.9471 12.25088,-0.2362 3.96184,-1.1834 7.58979,-3.4642 10.37355,-6.5215 2.61987,-2.8773 4.46916,-6.3867 5.82588,-10.0339 1.35673,-3.6472 2.24248,-7.4494 3.1251,-11.2393 0.88261,-3.79 1.76933,-7.592 3.12785,-11.2385 1.35853,-3.6465 3.21053,-7.1547 5.83325,-10.0294 2.84955,-3.1234 6.56034,-5.4225 10.57306,-6.7542 4.01271,-1.3317 8.3187,-1.7097 12.52442,-1.277 8.41144,0.8654 16.25368,4.9206 22.80217,10.2702 9.61129,7.8517 16.77328,18.5979 20.60363,30.4028 3.83035,11.8048 4.35268,24.62488 1.78641,36.76739 -0.86401,4.08812 -2.07506,8.13932 -2.23901,12.31453 -0.22399,5.70422 1.52177,11.30484 3.68274,16.58864 2.16098,5.28379 4.76227,10.40613 6.39278,15.87694 1.51103,5.06991 2.16092,10.48627 1.11954,15.67306 -1.61391,8.0384 -7.03441,14.69271 -12.16439,21.08833 -2.56499,3.1978 -5.10957,6.43243 -7.17809,9.97169 -2.06852,3.53926 -3.6584,7.41343 -4.1671,11.48115 -0.5385,4.30599 0.14466,8.65637 0.47845,12.98305 0.33378,4.32668 0.28029,8.85351 -1.59793,12.76553 -2.09647,4.36659 -6.36273,7.50352 -11.0509,8.72146 -4.68817,1.21793 -9.73681,0.62932 -14.25043,-1.1284 -4.51362,-1.75773 -8.5262,-4.63396 -12.0591,-7.94771 -3.5329,-3.31375 -6.6174,-7.07046 -9.65876,-10.8404 -2.82435,-3.50094 -5.6364,-7.04014 -8.95602,-10.07555 -7.52061,-6.87674 -17.58807,-10.90192 -27.77667,-11.10568 -10.1886,-0.20377 -20.40896,3.41565 -28.19851,9.98619"
       id="path4892"
       inkscape:path-effect="#path-effect4894"
       inkscape:original-d="m -495.11332,-1022.1606 c 14.24181,-7.3623 26.77169,22.48645 39.18265,10.0755 9.52991,-9.5299 3.92856,-35.5494 17.91208,-42.5411 13.95318,-6.9767 30.99949,-2.7277 45.89965,2.239 27.44588,9.1486 45.51063,44.0496 22.39004,67.17019 -2.00733,2.0073 -0.65452,9.14562 -2.23901,12.31453 -5.17462,10.34927 6.57115,28.96118 10.07552,32.46558 0.84693,0.84688 2.45853,14.33408 1.11954,15.67306 -11.4551,11.45513 -13.17905,32.21063 -23.50958,42.54117 -4.94216,4.9422 4.49954,20.12955 -1.11948,25.74858 -10.84102,10.84098 -41.22287,-5.39875 -47.01919,-11.19505 -2.87276,-2.87276 -3.29037,-8.18699 -8.95602,-10.07555 -11.68799,-3.89596 -49.96077,-1.11949 -55.97518,-1.11949"
       inkscape:connector-curvature="0"
       inkscape:export-filename="C:\Users\TyTy\Desktop\luke4bart\images\back.png"
       inkscape:export-xdpi="180"
       inkscape:export-ydpi="180" />
    <path
       style="color:#000000;fill:none;stroke:#000000;stroke-width:3.166435;stroke-linecap:butt;stroke-linejoin:miter;stroke-miterlimit:10;stroke-opacity:1;stroke-dasharray:none;stroke-dashoffset:0;marker:none;visibility:visible;display:inline;overflow:visible;enable-background:accumulate"
       d="m -497.3523,-1021.0411 0,141.05744"
       id="path4896"
       inkscape:connector-curvature="0"
       inkscape:export-filename="C:\Users\TyTy\Desktop\luke4bart\images\back.png"
       inkscape:export-xdpi="180"
       inkscape:export-ydpi="180" />
    <path
       style="fill:none;stroke:#000000;stroke-width:3.166435px;stroke-linecap:butt;stroke-linejoin:miter;stroke-opacity:1;display:inline"
       d="m -292.48315,-738.92622 c -9.15787,-1.69641 -22.252,-4.61605 -27.98758,1.11954 -12.21275,12.21273 6.74109,25.77266 11.19504,30.22659 2.05242,2.05242 10.26213,-2.05242 12.31454,0 2.23903,2.23901 1.11949,7.83652 3.35851,10.07553 2.39807,2.39807 17.05076,8.69785 21.27055,4.47801 12.75975,-12.75968 -4.1099,-52.3161 -20.15106,-45.89967 z"
       id="path4912"
       inkscape:connector-curvature="0"
       inkscape:export-filename="C:\Users\TyTy\Desktop\luke4bart\images\back.png"
       inkscape:export-xdpi="180"
       inkscape:export-ydpi="180" />
    <path
       style="fill:#e2e3e4;fill-opacity:1;stroke:#000000;stroke-width:3.166435px;stroke-linecap:butt;stroke-linejoin:miter;stroke-opacity:1;display:inline"
       d="m 546.02519,-1177.7717 c -28.38138,-0.6155 -40.12656,14.0816 -10.0755,29.1071 15.79267,7.8964 62.76944,-8.3576 83.9628,2.239 15.86683,7.9335 37.54397,18.2529 47.01915,32.4657 1.46825,2.2024 4.99879,6.717 6.71701,6.717 6.34649,0 29.50114,9.8785 40.30216,4.478 32.47425,-16.2371 0.83079,-65.6353 -20.15108,-76.1263 -4.98675,-2.4933 -17.8105,0 -147.77454,1.1195 z"
       id="path4914"
       inkscape:connector-curvature="0"
       inkscape:export-filename="C:\Users\TyTy\Desktop\luke4bart\images\back.png"
       inkscape:export-xdpi="180"
       inkscape:export-ydpi="180" />
    <path
       style="font-size:medium;font-style:normal;font-variant:normal;font-weight:normal;font-stretch:normal;text-indent:0;text-align:start;text-decoration:none;line-height:normal;letter-spacing:normal;word-spacing:normal;text-transform:none;direction:ltr;block-progression:tb;writing-mode:lr-tb;text-anchor:start;baseline-shift:baseline;color:#000000;fill:#ed1c24;fill-opacity:1;stroke:#000000;stroke-width:6.33287001;stroke-miterlimit:10;stroke-opacity:1;stroke-dasharray:none;marker:none;visibility:visible;display:inline;overflow:visible;enable-background:accumulate;font-family:Sans;-inkscape-font-specification:Sans"
       d="m 1296.4431,-1244.3633 -55.9074,29.6854 c 45.1795,85.1182 53.4884,131.2403 52.5431,218.38502 -1.813,167.13807 -55.2512,345.58338 -74.4113,557.29254 -1.1434,12.63343 -7.0353,29.01036 -15.2385,39.28358 -8.203,10.27324 -15.7885,14.92199 -28.8937,14.24894 l -0.7916,0 -0.7917,0 -905.10555,0 c -101.46121,0 -178.708287,33.29293 -239.659546,89.45181 -60.788764,56.00924 -106.689081,132.45279 -157.431174,221.749374 -0.1356,0.23875 -0.26029,0.45392 -0.39581,0.69268 l -393.72638,656.144536 54.32415,32.5551 394.122184,-656.837396 0.197811,-0.29667 0.197814,-0.29672 C -24.151104,-130.97566 19.906505,-202.21233 71.131516,-249.40974 122.35652,-296.60718 179.45842,-322.13881 267.84629,-322.13881 l 905.10561,0 0,-0.0988 c 33.8515,1.15152 62.5707,-16.22901 79.9525,-37.99721 17.6579,-22.11366 26.5473,-48.19227 28.7947,-73.02589 18.4764,-204.1547 72.7581,-382.57461 74.7082,-562.33953 1.0013,-92.30436 -11.4384,-157.34026 -59.9644,-248.76306 z"
       id="path4685"
       inkscape:connector-curvature="0"
       inkscape:export-filename="C:\Users\TyTy\Desktop\luke4bart\images\back.png"
       inkscape:export-xdpi="180"
       inkscape:export-ydpi="180" />
    <path
       style="font-size:medium;font-style:normal;font-variant:normal;font-weight:normal;font-stretch:normal;text-indent:0;text-align:start;text-decoration:none;line-height:normal;letter-spacing:normal;word-spacing:normal;text-transform:none;direction:ltr;block-progression:tb;writing-mode:lr-tb;text-anchor:start;baseline-shift:baseline;color:#000000;fill:#ffe800;fill-opacity:1;stroke:#000000;stroke-width:6.33287001;stroke-miterlimit:10;stroke-opacity:1;stroke-dasharray:none;marker:none;visibility:visible;display:inline;overflow:visible;enable-background:accumulate;font-family:Sans;-inkscape-font-specification:Sans"
       d="m 1802.8746,-1053.4866 c -9.067,0 -86.8425,-0.6776 -165.5452,17.2175 -39.3508,8.9476 -79.5851,22.3674 -113.4967,45.02272 -33.7581,22.55285 -61.7827,56.71029 -67.8804,101.32591 l -0.099,0.39579 c 0,0.0654 0,0.13232 0,0.19781 l -75.6976,496.04182 0,0.0988 c -5.3142,34.33581 -23.1135,57.98251 -46.1112,74.60911 -23.0199,16.64285 -51.7215,24.63883 -71.3437,24.63883 l -983.47507,-1.08826 c -95.61528,0 -166.61439,41.67211 -215.911271,91.52976 -49.219015,49.7789 -79.24444,107.659434 -99.7427,143.182224 -0.03221,0.0562 -0.06659,0.14192 -0.0988,0.19781 l -485.651949,827.824856 54.62101,32.0601 485.750891,-828.022696 0.09877,-0.0988 0,-0.0987 c 21.761701,-37.69184 49.121466,-89.126644 90.045789,-130.516504 40.90633,-41.37165 92.98454,-72.7015 170.78958,-72.72907 l 0.0988,0 983.37595,1.08848 0.099,0 c 35.0082,0 74.0537,-11.84297 108.4506,-36.71086 34.3967,-24.8679 63.6313,-64.24986 71.6403,-116.26752 l 0,-0.0988 75.6981,-496.73495 0.097,-0.2967 0,-0.29669 c 3.2034,-24.28495 16.6197,-41.65525 40.4711,-57.58954 23.8513,-15.9343 57.5515,-28.0134 92.3215,-35.91926 69.5396,-15.8117 140.5442,-15.63427 151.4939,-15.63427 l 0,-63.3287 z"
       id="path4752"
       inkscape:connector-curvature="0"
       inkscape:export-filename="C:\Users\TyTy\Desktop\luke4bart\images\back.png"
       inkscape:export-xdpi="180"
       inkscape:export-ydpi="180" />
    <path
       style="font-size:medium;font-style:normal;font-variant:normal;font-weight:normal;font-stretch:normal;text-indent:0;text-align:start;text-decoration:none;line-height:normal;letter-spacing:normal;word-spacing:normal;text-transform:none;direction:ltr;block-progression:tb;writing-mode:lr-tb;text-anchor:start;baseline-shift:baseline;color:#000000;fill:#00aeef;fill-opacity:1;stroke:#000000;stroke-width:6.33287001;stroke-miterlimit:10;stroke-opacity:1;stroke-dasharray:none;marker:none;visibility:visible;display:inline;overflow:visible;enable-background:accumulate;font-family:Sans;-inkscape-font-specification:Sans"
       d="m 278.0384,-205.17893 c -62.80869,0 -111.83263,26.4122 -146.44758,58.97485 -34.345599,32.30926 -56.259557,70.323084 -71.541654,97.367904 -0.119641,0.21203 -0.276736,0.48191 -0.395811,0.69263 l -570.354095,957.154026 54.42312,32.4559 570.7499,-957.846626 0.19783,-0.29669 0.19778,-0.3958 c 14.92283,-26.4182 34.00283,-58.50474 60.06333,-83.020124 26.06048,-24.51542 57.28312,-41.75736 103.10702,-41.75736 l 1014.05086,0 c 63.6089,0 112.6918,2.35436 137.4429,12.26994 24.5427,9.83199 44.053,27.9914 75.3018,71.046874 0.2657,0.36607 0.4251,0.61979 0.6926,0.9895 l 296.9521,443.894586 52.6423,-35.2265 -297.645,-444.884186 -0.2968,-0.49474 -0.3958,-0.49476 c -34.1909,-47.268444 -63.7912,-77.619524 -103.7007,-93.607744 -39.9097,-15.98822 -96.3561,-16.82168 -160.9934,-16.82168 z"
       id="path4827"
       inkscape:connector-curvature="0"
       inkscape:export-filename="C:\Users\TyTy\Desktop\luke4bart\images\back.png"
       inkscape:export-xdpi="180"
       inkscape:export-ydpi="180"
       sodipodi:nodetypes="sscccccccsssscccccccsss" />
    <path
       style="font-size:medium;font-style:normal;font-variant:normal;font-weight:normal;font-stretch:normal;text-indent:0;text-align:start;text-decoration:none;line-height:normal;letter-spacing:normal;word-spacing:normal;text-transform:none;direction:ltr;block-progression:tb;writing-mode:lr-tb;text-anchor:start;baseline-shift:baseline;color:#000000;fill:#4db848;fill-opacity:1;stroke:#000000;stroke-width:6.33287001;stroke-miterlimit:10;stroke-dasharray:none;marker:none;visibility:visible;display:inline;overflow:visible;enable-background:accumulate;font-family:Sans;-inkscape-font-specification:Sans"
       d="m 284.56919,-114.34184 c -35.35087,0 -62.98364,7.91674 -83.11891,23.748274 -20.13527,15.83154 -30.62295,34.67721 -43.83533,53.63149 l -0.69268,0.98954 -0.69262,0.9895 -584.60307,991.588816 54.52206,32.1592 583.41562,-989.5109558 c 0.14688,-0.21054 0.25016,-0.2856 0.39581,-0.49475 14.18053,-20.3539202 22.82548,-33.3876602 30.57587,-39.4814902 7.83007,-6.15643 16.82854,-10.29091 44.03325,-10.29091 l 967.84071,0 c 39.4456,0 55.1478,4.88676 66.495,12.86364 11.2523,7.91019 22.7486,24.45242 42.4501,53.13674 0.1663,0.24191 0.2286,0.35017 0.3958,0.59371 l 401.5434,612.902916 52.9391,-34.7317 -401.8406,-613.496766 -0.1972,-0.2967 -0.197,-0.19781 c -19.3977,-28.24583 -33.3005,-51.82157 -58.678,-69.66155 -25.3774,-17.840014 -57.7397,-24.440924 -102.9091,-24.440924 l -967.84067,0 z"
       id="path4842"
       inkscape:connector-curvature="0"
       inkscape:export-xdpi="180"
       inkscape:export-ydpi="180"
       inkscape:export-filename="C:\Users\TyTy\Desktop\luke4bart\images\back.png" />
    <path
       id="path5405"
       style="font-size:medium;font-style:normal;font-variant:normal;font-weight:normal;font-stretch:normal;text-indent:0;text-align:start;text-decoration:none;line-height:normal;letter-spacing:normal;word-spacing:normal;text-transform:none;direction:ltr;block-progression:tb;writing-mode:lr-tb;text-anchor:start;baseline-shift:baseline;color:#000000;fill:#faa61a;fill-opacity:1;stroke:#000000;stroke-width:6.33287001;stroke-miterlimit:10;stroke-dasharray:none;marker:none;visibility:visible;display:inline;overflow:visible;enable-background:accumulate;font-family:Sans;-inkscape-font-specification:Sans"
       d="m 1328.5032,-1293.7399 c -7.8682,33.9051 -3.3538,61.8826 5.5412,83.02 8.8952,21.1373 18.7735,36.0048 27.2116,63.4276 16.8761,54.8458 29.0953,163.43245 -14.4468,426.87504 l -0.099,0.49476 0,0.39579 c -3.3468,24.73731 -28.728,167.04475 -47.9912,305.85783 -14.9157,107.4847 33.9462,250.04987 108.2526,351.573244 0.3297,0.45059 0.6586,0.93634 0.9894,1.38531 l 363.9421,551.355406 52.8397,-34.9297 -364.9315,-552.740756 -0.3958,-0.59371 -0.4947,-0.69265 c -64.9807,-88.194734 -108.4264,-227.673644 -97.4669,-306.649444 18.9548,-136.59114 43.1345,-271.08546 47.7933,-305.16516 0.023,-0.13455 0.1798,-0.75907 0.1972,-0.89056 l -0.099,0 c 44.1227,-267.38722 33.6428,-386.1607 12.4679,-454.9771 -10.6,-34.4489 -23.5693,-55.4374 -29.3886,-69.2658 -5.8193,-13.8283 -7.8864,-19.9559 -2.2758,-44.1322 l -61.6468,-14.3479 z"
       inkscape:connector-curvature="0"
       inkscape:export-filename="C:\Users\TyTy\Desktop\luke4bart\images\back.png"
       inkscape:export-xdpi="180"
       inkscape:export-ydpi="180" />
  </g>
</svg>
